<svg width="22" height="22" viewBox="0 0 22 22" fill="none" xmlns="http://www.w3.org/2000/svg">
<g id="delete-bin-2-line">
<path id="Vector" d="M15.5833 5.49992H20.1666V7.33325H18.3333V19.2499C18.3333 19.7562 17.9229 20.1666 17.4166 20.1666H4.58331C4.07706 20.1666 3.66665 19.7562 3.66665 19.2499V7.33325H1.83331V5.49992H6.41665V2.74992C6.41665 2.24366 6.82706 1.83325 7.33331 1.83325H14.6666C15.1729 1.83325 15.5833 2.24366 15.5833 2.74992V5.49992ZM16.5 7.33325H5.49998V18.3333H16.5V7.33325ZM12.2963 12.833L13.9168 14.4535L12.6205 15.7498L11 14.1293L9.3795 15.7498L8.08316 14.4535L9.70363 12.833L8.08316 11.2126L9.3795 9.91623L11 11.5366L12.6205 9.91623L13.9168 11.2126L12.2963 12.833ZM8.24998 3.66659V5.49992H13.75V3.66659H8.24998Z" fill="#373330" fill-opacity="0.63"/>
</g>
</svg>
