<svg width="32" height="32" viewBox="0 0 32 32" fill="none" xmlns="http://www.w3.org/2000/svg">
<g id="image-add-line" clip-path="url(#clip0_273_985)">
<path id="Vector" d="M28.0001 20V24H32.0001V26.6667H28.0001V30.6667H25.3334V26.6667H21.3334V24H25.3334V20H28.0001ZM28.011 4C28.7414 4 29.3334 4.59327 29.3334 5.32453V17.3333H26.6667V6.66667H5.33341V25.332L18.6667 12L22.6667 16V19.772L18.6667 15.7712L9.10275 25.3333H18.6667V28H3.98915C3.25881 28 2.66675 27.4068 2.66675 26.6755V5.32453C2.66675 4.59301 3.27383 4 3.98915 4H28.011ZM10.6667 9.33333C12.1395 9.33333 13.3334 10.5272 13.3334 12C13.3334 13.4728 12.1395 14.6667 10.6667 14.6667C9.19399 14.6667 8.00008 13.4728 8.00008 12C8.00008 10.5272 9.19399 9.33333 10.6667 9.33333Z" fill="#D97706"/>
</g>
<defs>
<clipPath id="clip0_273_985">
<rect width="32" height="32" fill="white"/>
</clipPath>
</defs>
</svg>
