<svg width="49" height="28" viewBox="0 0 49 28" fill="none" xmlns="http://www.w3.org/2000/svg">
<g id="logotype">
<g id="cushionLogo">
<path d="M27.0209 17.4568L32.8161 17.8342V19.1649H46.7448V23.3333H27.0209V17.4568ZM25.2925 16.6435C25.2925 9.11989 25.9635 6.92382 27.8342 4.66675H33.3244C32.7754 5.48011 32.3484 6.21213 31.9824 6.98482C32.9381 6.72048 33.4846 6.59848 34.481 6.59848C38.0191 6.59848 39.3205 7.92018 39.3205 11.4583V15.4235L33.932 15.6268V12.6987C33.932 11.804 33.505 11.4583 32.3663 11.4583C31.8579 11.4583 31.5554 11.5803 30.8437 11.8446C30.7217 13.1867 30.681 14.8134 30.681 16.8468L25.2925 16.6435ZM39.6666 16.1351V11.865H40.9497V10.5433H39.5645V6.27313H40.9497V4.74816H46.3382V18.4532H40.9497V16.1351H39.6666Z" fill="#231F1E"/>
<path d="M17.0142 14.5898C17.0548 14.3661 17.1158 14.1221 17.1565 13.8781L4.99675 14.0611L4.79341 10.401L17.5225 10.1977C17.5022 9.28263 16.9125 9.01829 14.8384 9.01829C12.3577 9.01829 8.92125 9.2013 3.69542 9.58764L3.22774 5.43951C7.86389 4.91083 11.6257 4.66682 14.7774 4.66682C21.4063 4.66682 23.4397 5.70385 23.4397 9.09963C23.4397 10.828 23.1144 13.2478 22.6467 14.9355L17.0142 14.5898ZM2.25171 19.6123V15.3422H24.4157V19.6123H16.4855V23.3334H10.182V19.6123H2.25171Z" fill="#231F1E"/>
</g>
</g>
</svg>
