<svg width="48" height="48" viewBox="0 0 48 48" fill="none" xmlns="http://www.w3.org/2000/svg">
<g id="cushionVectorAsset">
<path id="Vector" fill-rule="evenodd" clip-rule="evenodd" d="M12.804 5.4868C12.8003 5.19937 12.7922 7.0569 12.8033 7.32072C12.8621 8.73302 12.8545 10.1471 12.8545 11.5627C12.8545 16.1131 12.8033 20.6596 12.8033 25.2083C12.8033 30.6568 13.0126 36.0796 13.3143 41.5115C13.3887 42.8482 13.0176 46.5097 14.8987 46.9801C15.8598 47.2203 15.5965 45.1492 16.2276 44.8336C16.4533 44.7208 16.9108 45.6366 17.0452 45.8047C17.392 46.2379 18.003 46.3396 18.5274 46.2645C19.3437 46.1479 19.6095 44.9713 20.2651 44.5781C21.0271 44.1208 21.3799 45.2457 22.0027 45.0381C22.7336 44.7944 22.9706 43.6075 23.8937 43.4537C25.1311 43.2474 25.9894 45.1766 27.2668 44.6291C28.6213 44.0487 29.5316 42.5522 30.1798 41.256C30.6002 40.415 30.9175 39.2974 31.713 38.7007C32.5359 38.0836 33.906 41.1075 34.9838 40.0296C36.4627 38.5507 36.2678 35.5037 36.415 33.5899C36.8371 28.1025 36.9471 22.4732 36.5683 16.98C36.3487 13.7946 36.1343 10.6107 35.5461 7.47398C35.3386 6.36695 35.1962 4.52123 34.115 3.84536C33.1793 3.26044 32.1057 3.50616 31.4065 4.3054C31.1361 4.61445 30.9648 5.13957 30.5886 5.32751C30.4349 5.40465 29.6334 4.41118 29.4643 4.3054C28.6432 3.79234 27.4273 3.42677 26.449 3.58983C25.7937 3.69913 24.7864 5.74836 24.0469 5.37877C22.6786 4.69435 22.1399 2.36647 20.4183 2.20994C19.5528 2.1313 17.7422 4.29812 16.906 4.08028C16.0696 3.86244 16.1294 1.12628 15.4005 0.902408C13.197 0.226281 12.8694 3.23707 12.804 5.4868Z" fill="#E78A09"/>
</g>
</svg>
