<svg width="19" height="18" viewBox="0 0 19 18" fill="none" xmlns="http://www.w3.org/2000/svg">
<g id="information-2-line">
<path id="Vector" d="M9.5 16.5C5.35786 16.5 2 13.1421 2 9C2 4.85786 5.35786 1.5 9.5 1.5C13.6421 1.5 17 4.85786 17 9C17 13.1421 13.6421 16.5 9.5 16.5ZM9.5 15C12.8137 15 15.5 12.3137 15.5 9C15.5 5.68629 12.8137 3 9.5 3C6.18629 3 3.5 5.68629 3.5 9C3.5 12.3137 6.18629 15 9.5 15ZM10.25 7.875V11.25H11V12.75H8V11.25H8.75V9.375H8V7.875H10.25ZM10.625 6C10.625 6.62132 10.1213 7.125 9.5 7.125C8.8787 7.125 8.375 6.62132 8.375 6C8.375 5.37868 8.8787 4.875 9.5 4.875C10.1213 4.875 10.625 5.37868 10.625 6Z" fill="#373330" fill-opacity="0.43"/>
</g>
</svg>
