<svg width="20" height="20" viewBox="0 0 20 20" fill="none" xmlns="http://www.w3.org/2000/svg">
<g id="search-line">
<path id="Vector" d="M15.0259 13.8474L18.5948 17.4163L17.4163 18.5948L13.8474 15.0259C12.5642 16.0526 10.9367 16.6667 9.16675 16.6667C5.02675 16.6667 1.66675 13.3067 1.66675 9.16675C1.66675 5.02675 5.02675 1.66675 9.16675 1.66675C13.3067 1.66675 16.6667 5.02675 16.6667 9.16675C16.6667 10.9367 16.0526 12.5642 15.0259 13.8474ZM13.354 13.2291C14.373 12.1789 15.0001 10.7464 15.0001 9.16675C15.0001 5.94383 12.3897 3.33341 9.16675 3.33341C5.94383 3.33341 3.33341 5.94383 3.33341 9.16675C3.33341 12.3897 5.94383 15.0001 9.16675 15.0001C10.7464 15.0001 12.1789 14.373 13.2291 13.354L13.354 13.2291Z" fill="#373330" fill-opacity="0.43"/>
</g>
</svg>
