<svg width="20" height="20" viewBox="0 0 20 20" fill="none" xmlns="http://www.w3.org/2000/svg">
<g id="cushionVectorAsset">
<path id="vector" fill-rule="evenodd" clip-rule="evenodd" d="M3.58372 12.8469C4.30345 13.2902 5.01628 13.7293 5.83934 13.9488C6.9699 14.4276 8.13046 14.5579 9.3407 14.6353C9.48927 14.6449 9.64589 14.6504 9.80696 14.6561C10.7326 14.6889 11.805 14.7269 12.341 15.5519C12.4173 15.6694 12.4994 15.7886 12.5826 15.9094C12.8025 16.2284 13.0302 16.5589 13.18 16.9002C13.4832 17.5916 13.5443 17.8949 13.6471 18.4048C13.696 18.6471 13.7542 18.9361 13.8523 19.3355C13.9866 19.8824 14.6337 19.6607 14.6759 19.3355C14.74 18.8411 14.7947 18.5072 14.8421 18.2181C14.9248 17.7142 14.9851 17.3464 15.0336 16.5022C15.0485 16.2433 15.0255 15.9876 15.0027 15.734C14.9681 15.3486 14.9339 14.9681 15.0336 14.5886C15.287 13.6248 16.0176 13.0076 16.7515 12.3878C17.3149 11.9118 17.8802 11.4343 18.2327 10.7971C18.7175 9.92072 19.0608 8.96876 19.1739 7.97007C19.3582 6.34369 18.8983 4.69168 18.0905 3.2853C17.8715 2.90399 17.6201 2.669 17.2972 2.37701C16.6296 1.77317 16.0573 1.28551 15.237 0.928825C13.8163 0.311078 12.1059 0.297243 10.5851 0.354106L10.5268 0.356282C9.23275 0.404635 7.89907 0.454467 6.65479 0.846812C5.67498 1.1558 4.83546 1.69153 3.99723 2.28038C3.42274 2.68399 2.87013 3.13115 2.38914 3.64496C1.71071 4.36968 1.40195 5.17701 1.10001 6.10518C0.743475 7.20117 0.695811 8.35398 0.928569 9.48777C1.02457 9.95536 1.17212 10.47 1.42202 10.8945C1.91439 11.7311 2.75402 12.3359 3.56447 12.835L3.58372 12.8469ZM12.329 3.81715C12.525 3.90087 12.5459 4.24132 12.5602 4.47488C12.5629 4.51941 12.5654 4.56006 12.5688 4.5943C12.6355 5.26148 12.6856 6.06781 12.4648 6.71006C12.3811 6.95355 12.1108 7.5104 11.7572 7.41174C11.5557 7.35555 11.4459 6.9952 11.3907 6.81388L11.3854 6.7965C11.2389 6.31768 11.2976 5.85824 11.3581 5.38456C11.3844 5.17875 11.411 4.97025 11.4213 4.7563C11.4487 4.18763 11.674 3.53738 12.329 3.81715ZM15.3443 6.54446C15.5634 6.54446 15.9191 6.71649 15.8145 7.30439C15.8042 7.3626 15.7994 7.40875 15.7949 7.4511C15.7861 7.53594 15.7788 7.60552 15.7319 7.72617C15.6945 7.82237 15.6522 7.9185 15.6009 8.01085C15.5501 8.10216 15.4951 8.19152 15.4321 8.2747C15.257 8.50817 15.0345 8.72715 14.7856 8.92777C14.4448 9.20257 14.0605 9.44763 13.7014 9.64886C12.8659 10.1841 12.0056 10.5807 11.099 10.8426C10.1994 11.1025 9.25536 11.2251 8.25168 11.234C7.79729 11.23 7.30688 11.217 6.8388 11.1384C6.49834 11.0812 6.16943 10.9894 5.87059 10.847C5.58095 10.7089 5.32648 10.5287 5.09986 10.3216C4.76913 10.0194 4.49817 9.65981 4.26092 9.29903C4.14023 9.11622 4.11738 8.50681 4.3002 8.38611C4.48301 8.26543 4.72942 8.31587 4.8501 8.49868C5.02083 8.75632 5.20994 9.01459 5.43355 9.24284C5.63574 9.44922 5.86676 9.63085 6.1408 9.76034C6.37435 9.87076 6.63215 9.93843 6.89793 9.98257C7.32444 10.0534 7.77125 10.0628 8.18517 10.0661C9.11815 10.0901 9.9976 9.99981 10.8438 9.79453C11.7029 9.58613 12.5285 9.26319 13.3362 8.80306C13.6533 8.59673 13.9943 8.35284 14.2872 8.07703C14.4759 7.89938 14.6397 7.70612 14.7647 7.50515C14.8428 7.28722 14.905 7.08171 14.9536 6.86088C15.0127 6.59346 15.2267 6.54446 15.3443 6.54446ZM7.4398 4.47488C7.45413 4.24132 7.47502 3.90087 7.67103 3.81715C8.32601 3.53738 8.55127 4.18763 8.57867 4.7563C8.58897 4.97025 8.61561 5.17875 8.6419 5.38456C8.70242 5.85824 8.76112 6.31768 8.61463 6.7965L8.60933 6.81388C8.55408 6.99519 8.44427 7.35555 8.2428 7.41174C7.88918 7.5104 7.61892 6.95355 7.53519 6.71006C7.31435 6.06781 7.36444 5.26148 7.43115 4.5943C7.43457 4.56007 7.43707 4.5194 7.4398 4.47488Z" fill="#E78A09"/>
</g>
</svg>
