<svg width="22" height="22" viewBox="0 0 22 22" fill="none" xmlns="http://www.w3.org/2000/svg">
<g id="logout-circle-line">
<path id="Vector" d="M4.58333 10.0834H11.9167V11.9167H4.58333V14.6667L0 11L4.58333 7.33337V10.0834ZM3.666 16.5H6.14932C7.44207 17.641 9.14018 18.3334 11 18.3334C15.0501 18.3334 18.3333 15.0501 18.3333 11C18.3333 6.94995 15.0501 3.66671 11 3.66671C9.14018 3.66671 7.44207 4.35904 6.14932 5.50004H3.666C5.33837 3.27356 8.001 1.83337 11 1.83337C16.0626 1.83337 20.1667 5.93743 20.1667 11C20.1667 16.0626 16.0626 20.1667 11 20.1667C8.001 20.1667 5.33837 18.7265 3.666 16.5Z" fill="#373330" fill-opacity="0.63"/>
</g>
</svg>
