<svg width="160" height="160" viewBox="0 0 160 160" fill="none" xmlns="http://www.w3.org/2000/svg">
<g id="cushionVectorAsset">
<g id="Union">
<path d="M64.2148 3.33884C67.0237 3.21374 69.4062 5.29978 69.5365 7.99813C69.7697 12.8302 69.7805 17.737 69.7911 22.5234C69.7935 23.6125 69.7959 24.6959 69.8009 25.7702C69.8282 31.633 69.9317 37.314 70.4892 42.8408C70.7605 45.5295 68.7115 47.9203 65.9128 48.1808C63.114 48.4414 60.6253 46.473 60.3541 43.7844C59.7481 37.7776 59.6459 31.7127 59.6184 25.814C59.6132 24.6877 59.6106 23.5697 59.6081 22.4589C59.5971 17.6863 59.5865 13.0461 59.3647 8.45115C59.2345 5.7528 61.406 3.46394 64.2148 3.33884Z" fill="#E78A09"/>
<path d="M40.3072 58.8689C37.6659 59.3219 34.7424 59.8233 32.1221 60.0036C29.3174 60.1965 26.881 58.1686 26.6802 55.4743C26.4794 52.7799 28.5903 50.4393 31.395 50.2464C33.431 50.1064 35.5927 49.7367 38.0946 49.3087C38.9813 49.1571 39.9107 48.9981 40.8923 48.8395C44.3581 48.2794 48.425 47.7405 52.266 48.1576C55.0601 48.4611 57.069 50.8831 56.7531 53.5672C56.4372 56.2514 53.9161 58.1813 51.122 57.8778C48.8314 57.629 46.0106 57.9319 42.5815 58.486C41.8589 58.6028 41.0957 58.7337 40.3072 58.8689Z" fill="#E78A09"/>
<path d="M76.2802 45.9112C73.4882 45.5907 70.9544 47.5052 70.6207 50.1873C70.2871 52.8695 72.28 55.3037 75.072 55.6242C79.1331 56.0904 83.1434 56.0103 86.7592 55.9381L86.8275 55.9368C90.5761 55.8619 93.9195 55.7986 97.2118 56.16C100.006 56.4666 102.529 54.5396 102.848 51.8558C103.167 49.172 101.162 46.7478 98.3678 46.4411C94.3635 46.0016 90.4103 46.0808 86.8453 46.1522L86.6159 46.1568C82.8764 46.2314 79.5462 46.2862 76.2802 45.9112Z" fill="#E78A09"/>
<path d="M65.0743 57.7861C67.8851 57.8603 70.101 60.1094 70.0238 62.8097C69.8035 70.5067 69.8049 78.2057 69.8062 85.9849V86.001C69.8064 86.9841 69.8066 87.9685 69.8063 88.9543C69.8055 91.6556 67.5254 93.8447 64.7136 93.844C61.9017 93.8433 59.6229 91.6529 59.6236 88.9516C59.6239 87.9648 59.6237 86.9766 59.6235 85.9871V85.9864C59.6221 78.2234 59.6206 70.3824 59.845 62.5409C59.9222 59.8407 62.2635 57.7119 65.0743 57.7861Z" fill="#E78A09"/>
<path d="M48.4606 111.682C50.4683 111.646 52.2263 112.732 53.0863 114.339C53.7623 114.598 54.3907 115.001 54.9198 115.547C56.5634 117.242 57.0266 119.367 56.7036 121.251C56.4123 122.95 55.5303 124.314 54.6866 125.259C53.8164 126.234 52.7119 127.075 51.4882 127.658C50.3297 128.21 48.5914 128.748 46.6259 128.42C44.2128 128.018 42.07 126.791 40.7583 124.752C39.5117 122.814 39.3463 120.657 39.716 118.867C40.416 115.478 43.4996 111.771 48.4606 111.682Z" fill="#E78A09"/>
<path d="M92.5604 85.4392C95.3606 85.6849 97.4232 88.0648 97.1674 90.7548C96.7142 95.5213 96.8846 100.146 97.0682 105.131L97.0682 105.132L97.0682 105.133C97.136 106.973 97.2056 108.862 97.2463 110.826C97.3022 113.527 95.0686 115.76 92.2573 115.814C89.446 115.867 87.1216 113.721 87.0657 111.021C87.032 109.396 86.9698 107.716 86.906 105.995C86.7147 100.828 86.51 95.3023 87.027 89.865C87.2828 87.175 89.7602 85.1935 92.5604 85.4392Z" fill="#E78A09"/>
<path d="M76.8292 125.886C77.5131 125.804 78.143 125.721 78.7337 125.643C80.5226 125.407 81.9514 125.219 83.4281 125.23C86.2399 125.252 88.5374 123.08 88.5598 120.378C88.5821 117.677 86.3209 115.47 83.5091 115.449C81.2172 115.431 78.7995 115.754 76.8877 116.009C76.4095 116.072 75.9629 116.132 75.558 116.181C72.7681 116.518 70.7911 118.964 71.1421 121.644C71.4932 124.324 74.0394 126.224 76.8292 125.886Z" fill="#E78A09"/>
<path d="M116.406 118.922C116.555 121.619 114.4 123.922 111.592 124.066C110.826 124.105 109.974 124.166 109.066 124.231L109.065 124.232C106.771 124.397 104.124 124.587 101.628 124.509C98.8176 124.42 96.6139 122.16 96.7058 119.46C96.7978 116.76 99.1506 114.643 101.961 114.732C103.896 114.793 105.631 114.666 107.648 114.519C108.686 114.443 109.798 114.361 111.051 114.297C113.859 114.154 116.256 116.224 116.406 118.922Z" fill="#E78A09"/>
<path d="M98.3107 129.53C98.439 126.831 96.2659 124.544 93.457 124.42C90.6481 124.297 88.267 126.385 88.1387 129.083C87.8343 135.483 87.8418 141.901 87.8491 148.183V148.186C87.8505 149.387 87.8519 150.583 87.8511 151.773C87.8493 154.474 90.1273 156.665 92.9392 156.667C95.751 156.669 98.032 154.48 98.0338 151.779C98.0346 150.552 98.0332 149.331 98.0319 148.115C98.025 141.832 98.0182 135.68 98.3107 129.53Z" fill="#E78A09"/>
<path fill-rule="evenodd" clip-rule="evenodd" d="M122.272 56.6115C121.26 54.5703 118.869 53.4149 116.488 53.9637C111.749 55.0565 108.466 58.844 108.222 63.0377C108.096 65.2075 108.812 67.5587 110.707 69.3599C112.587 71.1477 115.106 71.9065 117.665 71.9525C119.664 71.9884 121.384 71.1651 122.394 70.5695C123.553 69.8858 124.695 68.9538 125.605 67.8711C126.412 66.9111 127.58 65.1845 127.603 62.968C127.616 61.7382 127.265 60.4296 126.407 59.2612C125.577 58.1316 124.479 57.4119 123.442 56.9633C123.059 56.7979 122.667 56.6815 122.272 56.6115ZM118.355 63.7606C118.353 63.7662 118.351 63.7688 118.351 63.7687C118.351 63.7686 118.352 63.7659 118.355 63.7606Z" fill="#E78A09"/>
<path fill-rule="evenodd" clip-rule="evenodd" d="M126.714 23.4358C125.331 22.5891 123.684 22.4643 122.251 22.9595C115.602 21.2113 109.173 24.9221 106.015 29.044C104.28 31.3097 102.949 34.3894 103.419 37.7437C103.925 41.3579 106.363 44.2096 109.971 45.9518L114.62 37.2478C114.62 37.2478 114.62 37.2478 114.62 37.2478L109.971 45.9518C117.525 49.5999 125.632 46.8823 129.923 42.171C132.119 39.7592 133.673 36.4431 133.27 32.7603C132.852 28.9476 130.448 25.7209 126.714 23.4358ZM117.049 32.7005C117.06 32.6958 117.071 32.6911 117.083 32.6865C118.201 32.2381 119.104 32.2382 119.745 32.4484C120.65 32.7447 121.58 32.7827 122.451 32.6035C123.05 33.1992 123.126 33.6316 123.143 33.7844C123.182 34.1376 123.064 34.8464 122.259 35.7296C120.564 37.5912 117.395 38.5437 114.62 37.2478L117.049 32.7005ZM117.049 32.7005C117.048 32.7005 117.049 32.7004 117.049 32.7005V32.7005ZM117.049 32.7005L114.62 37.2478C114.594 37.236 114.569 37.2241 114.544 37.2119C113.894 36.898 113.643 36.6353 113.568 36.5429C113.514 36.4754 113.512 36.453 113.511 36.4425L113.511 36.4396C113.499 36.3547 113.501 35.7757 114.216 34.8423C114.894 33.9584 115.928 33.1579 117.049 32.7005Z" fill="#E78A09"/>
</g>
</g>
</svg>
