<svg width="160" height="160" viewBox="0 0 160 160" fill="none" xmlns="http://www.w3.org/2000/svg">
<g id="cushionVectorAsset">
<path id="Vector" fill-rule="evenodd" clip-rule="evenodd" d="M38.0026 57.7448C36.9537 58.3613 35.9383 59.0327 34.9589 59.7564C29.4452 63.8308 25.0896 69.6042 22.4415 76.7514C18.1372 77.8889 13.9229 79.5106 10.5951 81.747C5.64834 85.0713 2.48687 89.6609 2.18371 95.5104C1.91691 100.655 2.73149 105.328 4.34061 109.75C5.86582 113.942 8.14371 117.903 10.9603 121.823C15.7657 128.473 21.2235 134.062 27.6016 137.787C34.3393 141.721 42.1078 143.632 51.3173 142.532C52.9266 142.337 54.5254 142.018 56.084 141.567C58.9304 144.344 62.3228 146.611 66.0894 148.208C75.0191 151.965 85.3247 152.867 95.3311 151.309C105.131 149.783 114.625 145.959 122.163 140.449C125.027 138.351 127.747 136.031 130.217 133.474C132.73 130.873 135.001 128.043 136.92 124.969C138.391 122.611 139.863 120.148 141.013 117.563C141.86 115.657 142.552 113.692 142.972 111.658C144.42 104.657 143.257 98.9479 140.439 94.3428C143.663 91.8354 146.625 89.0411 149.246 86.1074C151.263 83.8522 153.454 81.0275 155.01 78.0107C156.168 75.7678 156.988 73.4218 157.223 71.1095C158.025 63.3186 154.74 57.6875 149.507 53.8706C142.501 48.7617 131.751 47.0829 123.582 48.0364L123.317 48.0706C125.324 43.6823 126.64 39.0121 126.705 34.5562C126.804 27.7348 124.151 21.3528 116.946 16.9024C107.442 11.014 95.7054 11.1343 85.4673 15.3616C82.9128 16.4161 80.4558 17.7267 78.1538 19.2601C74.7163 15.6493 70.7791 12.6955 66.5316 10.7329C58.0078 6.79425 48.2296 6.71886 38.4661 13.1188C37.0346 14.0572 35.6896 15.1081 34.4346 16.2568C33.1806 17.4047 32.0206 18.655 30.9575 19.9943C25.138 27.3257 24.1075 33.6393 25.4005 39.2596C26.9619 46.0464 32.5091 51.9376 38.0026 57.7448ZM72.9392 23.3637C70.1821 20.6212 67.0769 18.3777 63.7331 16.8765C57.1999 13.9435 49.747 14.0185 42.3542 18.9803C41.2487 19.7222 40.212 20.5513 39.2456 21.4555C38.2781 22.3607 37.3853 23.3456 36.5682 24.3984C32.6229 29.481 31.5933 33.723 32.5276 37.5754C34.0791 43.9714 40.0692 49.1321 45.3709 54.487C48.9517 53.3714 52.7777 52.805 56.7637 52.8479C61.7404 52.9114 67.5275 54.235 71.9671 57.1699C75.2779 59.3586 77.8946 62.3811 79.1191 66.3783C81.0885 72.8169 75.8392 76.9295 66.3017 75.0279C59.5681 73.6854 50.5916 69.6604 44.4731 64.4018C43.0366 65.1284 41.6775 65.9886 40.4045 66.9702C37.7181 69.0415 35.4324 71.6651 33.6487 74.762C35.9133 74.534 37.9604 74.4368 39.6266 74.44C43.1729 74.4466 47.6525 74.9124 51.1782 76.65C54.3012 78.1888 56.7937 80.5888 57.9898 84.1572C59.4324 88.461 58.6407 92.6624 56.3664 96.2038C53.4729 100.71 48.0895 104.059 42.998 104.757C36.0662 105.706 29.5586 102.393 25.4415 96.9741C23.5218 94.4475 22.1325 91.496 21.45 88.4052C17.2914 89.9765 13.4876 92.0288 13.3413 96.0052C13.2107 99.5512 13.8254 102.76 14.9793 105.789C16.207 109.012 18.0553 112.024 20.2782 115.022C24.1304 120.247 28.3977 124.726 33.4713 127.625C37.907 130.159 42.9795 131.389 48.9124 130.8C47.7613 127.853 47.0737 124.683 46.9235 121.365C46.8596 119.957 46.7592 118.413 46.8889 116.942C46.9722 115.994 47.1468 115.07 47.4175 114.187C48.9111 109.322 52.9289 106.106 57.3736 105.126C62.0943 104.085 67.2078 105.559 70.4156 109.854C73.6404 114.182 74.3851 119.033 73.4282 123.694C72.5388 128.026 70.0551 132.188 66.8172 135.38C68.0082 136.241 69.3009 136.98 70.6725 137.581C77.6709 140.674 85.8079 141.399 93.7343 140.328C101.837 139.233 109.746 136.304 116.061 131.902C118.492 130.21 120.812 128.337 122.924 126.254C124.994 124.214 126.88 121.991 128.482 119.559C129.562 117.92 130.655 116.226 131.58 114.45C132.393 112.892 133.097 111.279 133.492 109.576C134.415 105.606 134.01 102.28 132.61 99.5462C126.58 102.905 119.981 105.101 113.171 105.497C108.993 105.74 98.7812 105.494 93.2404 102.215C89.3505 99.9127 87.2516 96.4172 88.2834 91.4331C89.3376 86.34 93.7493 82.969 99.5254 81.3035C106.177 79.3853 114.579 79.7547 118.768 80.7417C125.398 82.3034 131.539 85.0796 136.035 89.1151C139.079 86.8658 141.879 84.3266 144.359 81.6561C145.808 80.0947 147.376 78.2084 148.64 76.1588C149.772 74.3229 150.692 72.3681 150.927 70.4111C151.549 65.1828 149.381 61.3654 145.896 58.7536C140.093 54.4035 131.067 53.0858 124.225 53.8117C122.689 53.9747 121.192 54.2376 119.726 54.5952C118.231 56.9049 116.601 59.0329 114.945 60.8822C113.336 62.6866 111.607 64.4229 109.773 66.0384C107.92 67.6692 105.96 69.1761 103.905 70.5074C103.484 70.7801 100.953 72.2091 99.4159 72.3601C97.7497 72.5237 96.5769 71.8155 95.9261 70.7146C95.244 69.5609 95.0592 68.2572 95.2756 66.9131C95.5981 64.9109 96.9892 62.7668 97.9375 61.5522C99.3725 59.7144 101.055 57.9815 102.906 56.4504C104.768 54.909 106.801 53.5738 108.919 52.5364C111.24 51.3921 113.592 50.4271 116.006 49.6675L116.269 49.5876C119.015 44.8804 121.011 39.5345 121.074 34.4803C121.136 29.5454 119.189 24.9414 113.969 21.7345C106.019 16.8649 96.2243 17.1699 87.707 20.7431C85.7069 21.5821 83.7744 22.6029 81.9524 23.7855C83.4844 25.8496 84.8664 28.0491 86.0764 30.3396C87.9279 33.8379 90.8765 42.7558 89.9308 48.9716C89.3269 52.9407 87.334 55.9509 83.5358 57.0725C77.9249 58.7293 71.8544 57.1357 67.7017 53.5772C63.3666 49.8628 61.0642 44.1176 63.2612 37.8156C65.1712 32.3181 68.5876 27.3873 72.9392 23.3637ZM59.5931 125.582C59.1255 124.09 58.8491 122.516 58.7908 120.884L58.8021 117.741C58.9267 117.349 59.2516 117.102 59.5913 116.953C59.9889 116.779 60.5118 116.651 60.7972 117.035C62.1004 118.777 61.992 120.805 61.2918 122.625C60.8875 123.676 60.3023 124.677 59.5931 125.582ZM127.734 94.1631C123.034 96.427 117.991 97.8617 112.828 98.0359C110.367 98.1191 105.326 98.0313 101.044 96.9228C99.6699 96.567 98.3837 96.1002 97.3527 95.4556C96.5259 94.9387 95.9474 94.2412 96.1961 93.1717C96.8853 90.2084 100.544 89.4573 104.139 88.8997C108.801 88.1767 113.903 88.5659 116.646 89.2831C120.736 90.3528 124.63 91.9239 127.734 94.1631ZM30.6824 85.919C34.1424 85.3143 37.3693 85.0578 39.6866 85.0275C41.5276 85.0032 43.7904 85.0683 45.7708 85.7196C46.7862 86.0535 47.8251 86.4535 48.2007 87.5203C48.7446 89.0649 48.0364 90.5213 47.0194 91.6915C45.6054 93.3187 43.5473 94.5433 41.5455 94.8567C38.2144 95.3783 35.1572 93.5926 33.1233 91.0201C31.9477 89.5332 31.0666 87.7664 30.6824 85.919ZM70.3771 66.8207C69.0889 66.8611 67.3359 67.1375 65.59 66.6758C61.8385 65.6834 57.5504 63.9228 53.7848 61.6322C54.7613 61.5169 55.7554 61.4555 56.7637 61.4447C59.6974 61.4072 63.0647 61.9098 65.9409 63.2647C67.7066 64.0967 69.3073 65.238 70.3771 66.8207ZM109.153 58.9043C108.169 59.9164 107.143 60.8956 106.076 61.8298C105.065 62.7153 104.019 63.5602 102.939 64.3523C104.001 63.0852 105.206 61.8912 106.511 60.8174C107.353 60.124 108.237 59.4808 109.153 58.9043ZM76.8063 27.8222C78.1252 29.5779 79.3199 31.4483 80.3738 33.392C81.4848 35.4432 83.1119 39.8136 83.6369 43.9808C84.0284 47.0884 84.3501 50.2976 81.7424 51.0912C78.1852 52.174 74.3287 51.1459 71.6705 48.9063C69.1293 46.7653 67.7004 43.4506 68.9487 39.7719C70.4922 35.2388 73.2679 31.1746 76.8063 27.8222Z" fill="#E78A09"/>
</g>
</svg>
