<svg width="160" height="160" viewBox="0 0 160 160" fill="none" xmlns="http://www.w3.org/2000/svg">
<g id="cushionVectorAsset">
<path id="Union" fill-rule="evenodd" clip-rule="evenodd" d="M55.4944 12.041C51.9921 19.3553 51.7435 25.5759 50.3986 33.4304L49.8243 36.7843C55.4993 36.7859 61.1785 36.7927 66.8613 36.8133C68.4094 30.6637 69.2733 23.4285 71.8076 17.6374L74.4803 11.53L86.6952 16.8755L84.0224 22.983C82.6008 26.2315 82.7027 29.0107 81.815 32.3068C81.4027 33.8373 80.9984 35.3659 80.6021 36.8947C85.3688 36.9354 90.1375 36.9909 94.9078 37.0662C94.9888 36.4801 95.0697 35.8936 95.1506 35.3068C95.871 30.0816 95.528 24.7226 97.6176 19.7423L100.197 13.5948L112.492 18.7535L109.913 24.901C108.431 28.4331 108.633 33.5052 108.123 37.2818C110.437 37.2902 112.814 37.2746 115.237 37.2588H115.238C118.2 37.2394 121.232 37.2195 124.303 37.2425C125.102 31.4648 124.76 25.1698 127.037 19.7423L129.616 13.5948L141.911 18.7535L139.332 24.901C137.804 28.5429 138.008 33.8355 137.484 37.719C142.409 38.0828 147.324 38.7055 152.109 39.7572L158.62 41.1883L155.758 54.2108L149.247 52.7797C144.779 51.7978 140.275 51.2448 135.698 50.9389L135.177 54.7953C134.014 61.8222 132.89 68.845 131.848 75.8679C134.147 75.9882 136.447 76.0639 138.751 76.0639H145.417V89.3972H138.751C135.827 89.3972 132.909 89.2767 129.994 89.0982C128.772 98.4291 127.744 107.765 127.014 117.116C133.209 117.42 139.437 118.064 145.459 119.387L151.971 120.819L149.108 133.841L142.597 132.41C137.203 131.224 131.755 130.664 126.19 130.409C125.953 135.665 125.825 140.927 125.825 146.197V152.863H112.492V146.197C112.492 140.855 112.618 135.529 112.853 130.218C111.892 130.223 110.927 130.229 109.957 130.235C105.714 130.261 101.378 130.288 96.9261 130.193C96.8778 130.192 96.8294 130.19 96.781 130.189C96.5373 135.518 96.4058 140.853 96.4058 146.197V152.863H83.0725V146.197C83.0725 140.769 83.2031 135.357 83.4448 129.961C76.2641 129.867 69.0827 129.813 61.8958 129.783C61.3939 132.4 60.7624 135.096 59.8824 137.755L57.7881 144.085L45.1298 139.896L47.224 133.567C47.6284 132.345 47.9734 131.075 48.2798 129.751C43.6025 129.746 38.9216 129.747 34.236 129.748C34.142 130.166 34.0484 130.581 33.9557 130.991C33.9557 130.991 33.6725 132.244 33.5364 132.854C32.6831 136.682 31.968 140.199 31.6472 143.689L31.0369 150.328L17.7596 149.107L18.3698 142.468C18.7743 138.069 19.6556 133.842 20.5226 129.953C20.5699 129.741 20.6171 129.53 20.6641 129.321C20.5186 129.304 20.3754 129.287 20.2347 129.271L19.9538 129.239C17.8941 129.002 16.3378 128.839 14.9194 128.863L8.25366 128.975L8.02923 115.644L14.695 115.532C17.1112 115.491 19.508 115.766 21.4342 115.988L21.4762 115.993C22.105 116.065 22.6903 116.132 23.2425 116.191C24.6234 107.412 26.0221 98.6391 27.4409 89.871C25.3881 89.846 23.3714 89.8156 21.4799 89.787H21.4784L21.4775 89.787C18.1947 89.7375 15.2892 89.6937 13.2262 89.6937H6.55957V76.3603H13.2262C15.7698 76.3603 19.066 76.4106 22.6239 76.4648H22.6249C22.6249 76.4648 25.4252 76.0693 29.7814 75.5239C30.7705 69.5103 31.7697 63.4985 32.7796 57.4882C33.1927 55.0294 33.6076 52.5733 34.0238 50.1192L33.3398 50.1192C31.0317 50.1192 28.7405 49.855 26.8842 49.6409L26.6032 49.6085C24.5436 49.3718 22.9872 49.2089 21.5689 49.2328L14.9031 49.345L14.6787 36.0135L21.3444 35.9013C23.7606 35.8607 26.1575 36.1362 28.0837 36.3576L28.1257 36.3624C30.2154 36.6026 31.8236 36.7858 33.3398 36.7858C34.3254 36.7858 35.3111 36.7857 36.2969 36.7856C37.5713 29.3374 37.3489 19.0634 40.5895 12.2956L43.4686 6.28271L55.4944 12.041ZM36.7048 116.414C41.3163 116.414 45.9307 116.414 50.5477 116.42C50.7438 115.229 50.9528 114.038 51.1808 112.881C52.3455 106.967 53.4867 101.027 54.6306 95.0716L54.6314 95.0673L54.6317 95.0659L54.6322 95.0632C55.0182 93.0537 55.4045 91.0426 55.7922 89.0303C52.4574 89.2315 49.1198 89.4485 45.7789 89.678C44.4129 89.7718 42.7695 89.8339 40.9478 89.8724C39.5138 98.7135 38.1002 107.56 36.7048 116.414ZM64.0718 116.46C70.7967 116.492 77.5263 116.547 84.2593 116.638C85.004 106.934 86.0594 97.2854 87.3106 87.6997C81.3827 87.8224 75.4511 88.0285 69.513 88.2992C68.9295 91.3167 68.3489 94.3392 67.7673 97.3671L67.7662 97.3728L67.765 97.379C66.6119 103.382 65.4547 109.406 64.2628 115.457C64.1968 115.792 64.1333 116.126 64.0718 116.46ZM97.6142 116.87C101.116 116.938 104.795 116.914 108.588 116.889C110.259 116.878 111.952 116.867 113.661 116.863C114.397 107.218 115.44 97.6281 116.678 88.0997C113.302 87.8564 109.924 87.6634 106.537 87.6179C104.617 87.5921 102.697 87.5772 100.777 87.5726C99.476 97.3297 98.3823 107.092 97.6142 116.87ZM116.607 50.6044C118.541 50.5924 120.456 50.5805 122.353 50.5804C122.245 51.2616 122.134 51.9413 122.022 52.6194C120.801 60.0024 119.613 67.4286 118.513 74.8947C114.586 74.5937 110.656 74.3387 106.717 74.2858C106.717 74.2858 105.217 74.151 102.715 73.9527C103.675 67.5682 104.701 61.1834 105.757 54.7953L106.323 50.6068C109.817 50.6465 113.241 50.6252 116.607 50.6044H116.607ZM43.5534 73.9541C48.5939 73.4406 53.9723 72.9679 58.9893 72.6741C60.4914 65.1501 62.0502 57.629 63.7184 50.1367C58.3327 50.1217 52.9433 50.1177 47.5483 50.1172C47.006 53.3081 46.4658 56.5004 45.9286 59.6977C45.1303 64.4485 44.3387 69.2006 43.5534 73.9541ZM72.6462 72.3836C78.1481 72.4653 84.0497 72.7299 89.3693 73.0367C90.3907 66.1963 91.4827 59.3897 92.6029 52.6194C92.7265 51.872 92.8477 51.1226 92.967 50.3714C87.7684 50.2945 82.5697 50.2406 77.3692 50.2029C75.6963 57.5802 74.1416 64.9705 72.6462 72.3836Z" fill="#E78A09"/>
</g>
</svg>
