<svg width="160" height="160" viewBox="0 0 160 160" fill="none" xmlns="http://www.w3.org/2000/svg">
<g id="cushionVectorAsset">
<g id="Vector">
<path d="M152.713 68.0402C155.694 68.0402 160.534 70.3812 159.111 78.3812C158.688 80.7602 158.944 81.6593 157.987 84.1209C157.478 85.4299 156.902 86.738 156.204 87.9947C155.513 89.2373 154.765 90.4532 153.908 91.5851C151.524 94.7622 148.496 97.742 145.11 100.472C140.472 104.211 135.243 107.546 130.356 110.284C118.987 117.568 107.279 122.965 94.9436 126.529C82.7011 130.066 69.8549 131.734 56.1969 131.854C50.0136 131.8 43.3401 131.624 36.9705 130.553C32.3377 129.775 27.8618 128.527 23.7952 126.589C19.8539 124.71 16.3911 122.257 13.3073 119.439C8.80668 115.326 5.11946 110.434 1.89104 105.524C0.24877 103.036 -0.0622256 94.7436 2.42562 93.1012C4.91326 91.459 8.26629 92.1453 9.90856 94.6331C12.2318 98.1389 14.8052 101.653 17.848 104.759C20.5995 107.568 23.7431 110.04 27.4722 111.801C30.6503 113.304 34.1585 114.225 37.7751 114.826C43.5791 115.79 49.6593 115.918 55.2918 115.963C67.9876 116.289 79.9551 115.06 91.4702 112.267C103.161 109.431 114.395 105.036 125.387 98.7749C129.701 95.9673 134.342 92.6484 138.328 88.8953C140.895 86.4779 143.125 83.8479 144.825 81.1132C145.888 78.1476 146.734 75.351 147.396 72.3461C148.2 68.707 151.112 68.0402 152.713 68.0402Z" fill="#E78A09"/>
<path fill-rule="evenodd" clip-rule="evenodd" d="M111.68 30.9273C114.856 32.2838 114.653 38.593 114.944 41.5027C115.852 50.5816 116.534 61.5541 113.528 70.2937C112.389 73.607 108.711 81.1846 103.899 79.8421C101.067 79.0521 99.5661 73.8449 98.8395 71.47C95.98 62.1231 98.8662 53.319 99.3289 43.7071C99.7018 35.9688 102.767 27.1203 111.68 30.9273Z" fill="#E78A09"/>
<path fill-rule="evenodd" clip-rule="evenodd" d="M48.2955 30.9273C45.1196 32.2838 45.3221 38.593 45.0311 41.5027C44.1233 50.5816 43.4418 61.5541 46.447 70.2937C47.5864 73.607 51.264 81.1846 56.076 79.8421C58.9082 79.0521 60.4093 73.8449 61.1359 71.47C63.9954 62.1231 61.1092 53.319 60.6465 43.7071C60.2736 35.9688 57.2084 27.1203 48.2955 30.9273Z" fill="#E78A09"/>
</g>
</g>
</svg>
