<svg width="160" height="160" viewBox="0 0 160 160" fill="none" xmlns="http://www.w3.org/2000/svg">
<g id="cushionVectorAsset">
<g id="Vector">
<path d="M84.4268 4.64945C83.1379 2.82983 80.9134 2.46168 79.2686 2.71472C77.6239 2.96777 75.6129 3.98753 74.9305 6.11042C74.5549 7.27905 74.8253 8.52159 74.9892 9.14254C75.0879 9.51644 75.1987 9.84095 75.2842 10.0714C75.2995 10.1129 75.3143 10.1517 75.3281 10.1877C75.5995 12.1424 75.5457 14.3004 75.351 16.7999C75.115 19.8309 74.9232 22.8944 74.5066 25.9021C74.4185 26.5382 74.2992 27.8042 74.8125 28.9193C75.7449 30.9448 77.8638 31.7157 79.5271 31.7693C81.1904 31.823 83.3545 31.1903 84.4155 29.2291C84.9996 28.1494 84.9622 26.8783 84.9153 26.2378C84.7041 23.357 85.1555 20.4525 85.3792 17.5807C85.5919 14.8486 85.7189 11.7768 85.2723 8.67182C85.275 8.6294 85.2776 8.58319 85.2801 8.53361C85.2924 8.28808 85.3005 7.94527 85.2822 7.559C85.2519 6.9175 85.1364 5.65113 84.4268 4.64945Z" fill="#E78A09"/>
<path d="M102.713 8.42678C101.807 6.38897 99.699 5.58994 98.0366 5.51411C96.3742 5.43829 94.2018 6.04205 93.1147 7.98898C92.5163 9.06075 92.5368 10.3322 92.5751 10.9733C92.5983 11.3593 92.643 11.6993 92.6814 11.9421C92.6883 11.9857 92.6951 12.0267 92.7016 12.0648C92.5827 14.0346 92.1049 16.1397 91.4219 18.5519C90.6919 21.1299 89.8523 23.6767 89.2256 26.2835C89.2075 26.3212 89.1881 26.3622 89.1677 26.4064C89.0646 26.6295 88.9289 26.9445 88.8014 27.3096C88.5898 27.9159 88.2235 29.1336 88.5072 30.3279C89.0224 32.4974 90.948 33.6705 92.5681 34.0506C94.1883 34.4308 96.4347 34.2367 97.8611 32.5228C98.6464 31.5793 98.8601 30.3258 98.9402 29.6886C98.9884 29.3049 99.007 28.9625 99.0138 28.7168C99.0151 28.6707 99.016 28.6276 99.0166 28.5876C99.6091 26.129 100.411 23.7248 101.1 21.2923C101.846 18.6556 102.576 15.669 102.75 12.5369C102.761 12.4958 102.772 12.451 102.784 12.4029C102.845 12.1646 102.92 11.8301 102.978 11.4478C103.075 10.8129 103.211 9.54857 102.713 8.42678Z" fill="#E78A09"/>
<path fill-rule="evenodd" clip-rule="evenodd" d="M149.965 49.1082C149.711 50.4912 147.921 51.2424 147.921 51.2424C145.819 53.436 143.199 54.8395 140.661 55.9879C139.738 56.4056 138.849 56.7815 137.988 57.1456C136.372 57.8284 134.855 58.4699 133.395 59.2687C133.395 59.2687 132.052 60.5333 130.852 60.6601C129.877 60.7631 129.239 60.9309 128.119 60.2076C125.633 58.6031 124.918 54.3486 125.906 52.3215C126.454 51.1969 128.449 50.9301 128.449 50.9301C130.055 50.0511 131.864 49.2847 133.583 48.5566C134.403 48.2089 135.204 47.8699 135.951 47.5315C138.38 46.432 140.505 45.2475 142.124 43.5576C142.124 43.5576 142.972 41.5595 144.169 41.4234C145.595 41.2612 147.019 41.8891 148.398 43.6461C149.841 45.4842 150.283 47.383 149.965 49.1082Z" fill="#E78A09"/>
<path d="M155.784 72.2512C157.362 70.6753 157.352 68.4206 156.827 66.8416C156.301 65.2625 154.959 63.4511 152.751 63.1344C151.536 62.9601 150.357 63.4352 149.772 63.7009C149.42 63.8609 149.119 64.0245 148.906 64.1475C148.868 64.1696 148.832 64.1906 148.799 64.2103C146.917 64.8057 144.781 65.1145 142.284 65.3419C138.492 65.6872 134.526 65.4977 130.859 66.5547C129.648 66.904 128.984 67.9197 128.669 68.5299C128.301 69.2463 128.067 70.076 127.966 70.8668C127.867 71.6402 127.872 72.5645 128.15 73.4245C128.435 74.3044 129.139 75.4263 130.57 75.75C130.691 75.7773 130.81 75.8047 130.928 75.832C131.574 75.9807 132.193 76.1234 132.814 76.1848C133.625 76.2648 134.4 76.2119 135.422 76.0591C137.99 75.6749 140.61 75.5944 143.196 75.3589C145.925 75.1104 148.975 74.7204 151.961 73.7593C152.003 73.7549 152.049 73.7497 152.098 73.7439C152.343 73.7148 152.682 73.6653 153.06 73.5825C153.687 73.445 154.916 73.1187 155.784 72.2512Z" fill="#E78A09"/>
<path d="M122.592 19.2001C122.593 16.9702 120.992 15.3831 119.504 14.638C118.016 13.8929 115.786 13.5614 114.001 14.8983C113.018 15.6342 112.52 16.8042 112.295 17.4055C112.159 17.7676 112.062 18.0964 111.998 18.3338C111.986 18.3765 111.976 18.4167 111.967 18.4541C109.73 22.762 105.948 26.2048 103.01 30.0318C102.979 30.0589 102.944 30.0886 102.908 30.1206C102.723 30.2826 102.471 30.5151 102.206 30.7969C101.766 31.2648 100.936 32.2285 100.71 33.435C100.299 35.6266 101.581 37.4811 102.907 38.4871C104.232 39.493 106.364 40.2289 108.364 39.2429C109.984 38.4442 110.854 36.3257 111.999 34.926C113.275 33.3656 114.598 31.8474 115.888 30.2989C117.642 28.1934 119.523 25.7613 120.955 22.9702C120.982 22.9371 121.01 22.901 121.041 22.862C121.193 22.6688 121.398 22.3939 121.607 22.0682C121.953 21.5274 122.591 20.4276 122.592 19.2001Z" fill="#E78A09"/>
<path d="M138.693 31.4728C139.206 29.3027 138.011 27.3906 136.733 26.3242C135.456 25.2578 133.361 24.4238 131.317 25.3158C130.192 25.8069 129.439 26.8315 129.082 27.3651C128.866 27.6864 128.696 27.9841 128.58 28.2007C128.559 28.2396 128.54 28.2763 128.522 28.3105C127.235 29.8068 125.581 31.1935 123.577 32.7005C122.94 33.18 122.256 33.6787 121.539 34.2019L121.512 34.2212C119.733 35.5188 118.02 36.8757 116.191 38.0866C115.656 38.4412 114.627 39.189 114.13 40.3114C113.227 42.3504 114.051 44.4496 115.11 45.7327C116.17 47.0158 118.076 48.2207 120.249 47.7195C121.445 47.4436 122.373 46.575 122.823 46.1162C124.844 44.0526 127.321 42.4704 129.623 40.739C131.813 39.0917 134.201 37.1555 136.235 34.7671C136.269 34.7411 136.305 34.7125 136.344 34.6816C136.536 34.5284 136.799 34.3078 137.076 34.0386C137.538 33.5916 138.411 32.6675 138.693 31.4728Z" fill="#E78A09"/>
<path d="M57.2885 8.42678C58.1938 6.38897 60.3022 5.58994 61.9646 5.51411C63.627 5.43829 65.7994 6.04205 66.8865 7.98898C67.4849 9.06075 67.4645 10.3322 67.4261 10.9733C67.403 11.3593 67.3583 11.6993 67.3198 11.9421C67.3129 11.9857 67.3062 12.0267 67.2997 12.0648C67.4185 14.0346 67.8963 16.1397 68.5794 18.5519C69.3094 21.1299 70.149 23.6767 70.7757 26.2835C70.7937 26.3212 70.8131 26.3622 70.8335 26.4064C70.9367 26.6295 71.0724 26.9445 71.1998 27.3096C71.4115 27.9159 71.7777 29.1336 71.4941 30.3279C70.9788 32.4974 69.0532 33.6705 67.4331 34.0506C65.813 34.4308 63.5666 34.2367 62.1401 32.5228C61.3549 31.5793 61.1412 30.3258 61.0611 29.6886C61.0128 29.3049 60.9943 28.9625 60.9874 28.7168C60.9861 28.6707 60.9852 28.6276 60.9846 28.5876C60.3921 26.129 59.5902 23.7248 58.9014 21.2923C58.1548 18.6556 57.4253 15.669 57.2517 12.5369C57.2407 12.4958 57.229 12.451 57.2168 12.4029C57.1564 12.1646 57.081 11.8301 57.0228 11.4478C56.9262 10.8129 56.7901 9.54857 57.2885 8.42678Z" fill="#E78A09"/>
<path fill-rule="evenodd" clip-rule="evenodd" d="M10.0358 49.1082C10.29 50.4912 12.0806 51.2424 12.0806 51.2424C14.1823 53.436 16.8025 54.8395 19.3401 55.9879C20.263 56.4056 21.1522 56.7815 22.0136 57.1456C23.6288 57.8284 25.1463 58.4699 26.606 59.2687C26.606 59.2687 27.949 60.5333 29.1489 60.6601C30.1238 60.7631 30.7622 60.9309 31.8826 60.2076C34.3681 58.6031 35.0835 54.3486 34.0951 52.3215C33.5468 51.1969 31.5523 50.9301 31.5523 50.9301C29.946 50.0511 28.1371 49.2847 26.4185 48.5566C25.5978 48.2089 24.7977 47.8699 24.0501 47.5315C21.6208 46.432 19.4967 45.2475 17.8776 43.5576C17.8776 43.5576 17.0288 41.5595 15.8328 41.4234C14.4065 41.2612 12.9825 41.8891 11.6034 43.6461C10.1607 45.4842 9.71871 47.383 10.0358 49.1082Z" fill="#E78A09"/>
<path d="M4.21679 72.2512C2.63914 70.6753 2.6493 68.4206 3.17463 66.8416C3.69996 65.2625 5.04258 63.4511 7.24984 63.1344C8.46491 62.9601 9.6445 63.4352 10.2292 63.7009C10.5812 63.8609 10.8825 64.0245 11.0954 64.1475C11.1337 64.1696 11.1695 64.1906 11.2027 64.2103C13.0841 64.8057 15.2206 65.1145 17.7173 65.3419C21.5095 65.6872 25.4756 65.4977 29.1419 66.5547C30.3535 66.904 31.0175 67.9197 31.3318 68.5299C31.7007 69.2463 31.9346 70.076 32.0355 70.8668C32.1342 71.6402 32.1297 72.5645 31.8513 73.4245C31.5663 74.3044 30.862 75.4263 29.4308 75.75C29.3105 75.7773 29.1913 75.8047 29.0729 75.832C28.4276 75.9807 27.8085 76.1234 27.187 76.1848C26.3766 76.2648 25.6014 76.2119 24.5795 76.0591C22.0107 75.6749 19.3914 75.5944 16.8051 75.3589C14.076 75.1104 11.0265 74.7204 8.04039 73.7593C7.9981 73.7549 7.95211 73.7497 7.90281 73.7439C7.6587 73.7148 7.31939 73.6653 6.94165 73.5825C6.31433 73.445 5.08528 73.1187 4.21679 72.2512Z" fill="#E78A09"/>
<path d="M37.4092 19.2001C37.4079 16.9702 39.0094 15.3831 40.4974 14.638C41.9854 13.8929 44.2157 13.5614 46.0004 14.8983C46.9828 15.6342 47.481 16.8042 47.7065 17.4055C47.8423 17.7676 47.9397 18.0964 48.0033 18.3338C48.0148 18.3765 48.0252 18.4167 48.0347 18.4541C50.2715 22.762 54.0537 26.2048 56.9908 30.0318C57.0226 30.0589 57.057 30.0886 57.0936 30.1206C57.2786 30.2826 57.5306 30.5151 57.7954 30.7969C58.2353 31.2648 59.065 32.2285 59.2913 33.435C59.7026 35.6266 58.4201 37.4811 57.0944 38.4871C55.7688 39.493 53.6375 40.2289 51.6374 39.2429C50.0173 38.4442 49.1469 36.3257 48.002 34.926C46.7258 33.3656 45.403 31.8474 44.113 30.2989C42.3589 28.1934 40.4784 25.7613 39.0465 22.9702C39.0197 22.9371 38.9908 22.901 38.9601 22.862C38.8081 22.6688 38.6031 22.3939 38.3946 22.0682C38.0482 21.5274 37.4099 20.4276 37.4092 19.2001Z" fill="#E78A09"/>
<path d="M21.3081 31.4728C20.7956 29.3027 21.9906 27.3906 23.2681 26.3242C24.5456 25.2578 26.6405 24.4238 28.6841 25.3158C29.8091 25.8069 30.5623 26.8315 30.9197 27.3651C31.1349 27.6864 31.305 27.9841 31.4214 28.2007C31.4423 28.2396 31.4617 28.2763 31.4796 28.3105C32.7663 29.8068 34.4206 31.1935 36.4242 32.7005C37.0617 33.18 37.7453 33.6787 38.4626 34.2019L38.489 34.2212C40.2679 35.5188 41.9816 36.8757 43.8102 38.0866C44.3456 38.4412 45.3741 39.189 45.871 40.3114C46.7738 42.3504 45.9507 44.4496 44.891 45.7327C43.8313 47.0158 41.9255 48.2207 39.7527 47.7195C38.5566 47.4436 37.6278 46.575 37.1785 46.1162C35.1572 44.0526 32.68 42.4704 30.378 40.739C28.1879 39.0917 25.7998 37.1555 23.7661 34.7671C23.7325 34.7411 23.6961 34.7125 23.6573 34.6816C23.465 34.5284 23.2025 34.3078 22.9248 34.0386C22.4637 33.5916 21.5902 32.6675 21.3081 31.4728Z" fill="#E78A09"/>
<path d="M84.4268 155.616C83.1379 157.435 80.9134 157.803 79.2686 157.55C77.6239 157.297 75.6129 156.277 74.9305 154.155C74.5549 152.986 74.8253 151.743 74.9892 151.122C75.0879 150.749 75.1987 150.424 75.2842 150.194C75.2995 150.152 75.3143 150.113 75.3281 150.077C75.5995 148.123 75.5457 145.965 75.351 143.465C75.115 140.434 74.9232 137.371 74.5066 134.363C74.4185 133.727 74.2992 132.461 74.8125 131.346C75.7449 129.32 77.8638 128.549 79.5271 128.496C81.1904 128.442 83.3545 129.075 84.4155 131.036C84.9996 132.116 84.9622 133.387 84.9153 134.027C84.7041 136.908 85.1555 139.813 85.3792 142.684C85.5919 145.416 85.7189 148.488 85.2723 151.593C85.275 151.636 85.2776 151.682 85.2801 151.731C85.2924 151.977 85.3005 152.32 85.2822 152.706C85.2519 153.348 85.1364 154.614 84.4268 155.616Z" fill="#E78A09"/>
<path d="M102.713 151.838C101.807 153.876 99.699 154.675 98.0366 154.751C96.3742 154.827 94.2018 154.223 93.1147 152.276C92.5163 151.204 92.5368 149.933 92.5751 149.292C92.5983 148.906 92.643 148.566 92.6814 148.323C92.6883 148.279 92.6951 148.238 92.7016 148.2C92.5827 146.23 92.1049 144.125 91.4219 141.713C90.6919 139.135 89.8523 136.588 89.2256 133.982C89.2075 133.944 89.1881 133.903 89.1677 133.859C89.0646 133.635 88.9289 133.321 88.8014 132.955C88.5898 132.349 88.2235 131.131 88.5072 129.937C89.0224 127.768 90.948 126.595 92.5681 126.214C94.1883 125.834 96.4347 126.028 97.8611 127.742C98.6464 128.686 98.8601 129.939 98.9402 130.576C98.9884 130.96 99.007 131.303 99.0138 131.548C99.0151 131.594 99.016 131.637 99.0166 131.677C99.6091 134.136 100.411 136.54 101.1 138.973C101.846 141.609 102.576 144.596 102.75 147.728C102.761 147.769 102.772 147.814 102.784 147.862C102.845 148.1 102.92 148.435 102.978 148.817C103.075 149.452 103.211 150.716 102.713 151.838Z" fill="#E78A09"/>
<path fill-rule="evenodd" clip-rule="evenodd" d="M149.965 111.157C149.711 109.774 147.921 109.023 147.921 109.023C145.819 106.829 143.199 105.426 140.661 104.277C139.738 103.859 138.849 103.484 137.988 103.119C136.372 102.437 134.855 101.795 133.395 100.996C133.395 100.996 132.052 99.7318 130.852 99.605C129.877 99.502 129.239 99.3342 128.119 100.058C125.633 101.662 124.918 105.916 125.906 107.944C126.454 109.068 128.449 109.335 128.449 109.335C130.055 110.214 131.864 110.98 133.583 111.709C134.403 112.056 135.204 112.395 135.951 112.734C138.38 113.833 140.505 115.018 142.124 116.707C142.124 116.707 142.972 118.706 144.169 118.842C145.595 119.004 147.019 118.376 148.398 116.619C149.841 114.781 150.283 112.882 149.965 111.157Z" fill="#E78A09"/>
<path d="M155.784 88.0139C157.362 89.5897 157.352 91.8444 156.827 93.4235C156.301 95.0025 154.959 96.814 152.751 97.1306C151.536 97.3049 150.357 96.8299 149.772 96.5642C149.42 96.4042 149.119 96.2405 148.906 96.1176C148.868 96.0955 148.832 96.0745 148.799 96.0547C146.917 95.4593 144.781 95.1505 142.284 94.9231C138.492 94.5778 134.526 94.7673 130.859 93.7103C129.648 93.361 128.984 92.3454 128.669 91.7351C128.301 91.0188 128.067 90.189 127.966 89.3982C127.867 88.6248 127.872 87.7005 128.15 86.8406C128.435 85.9607 129.139 84.8388 130.57 84.515C130.691 84.4878 130.81 84.4603 130.928 84.433C131.574 84.2843 132.193 84.1416 132.814 84.0803C133.625 84.0002 134.4 84.0531 135.422 84.2059C137.99 84.5901 140.61 84.6706 143.196 84.9061C145.925 85.1546 148.975 85.5447 151.961 86.5057C152.003 86.5102 152.049 86.5153 152.098 86.5212C152.343 86.5503 152.682 86.5998 153.06 86.6826C153.687 86.82 154.916 87.1464 155.784 88.0139Z" fill="#E78A09"/>
<path d="M122.592 141.065C122.593 143.295 120.992 144.882 119.504 145.627C118.016 146.372 115.786 146.704 114.001 145.367C113.018 144.631 112.52 143.461 112.295 142.86C112.159 142.498 112.062 142.169 111.998 141.931C111.986 141.889 111.976 141.848 111.967 141.811C109.73 137.503 105.948 134.06 103.01 130.233C102.979 130.206 102.944 130.177 102.908 130.145C102.723 129.983 102.471 129.75 102.206 129.468C101.766 129 100.936 128.037 100.71 126.83C100.299 124.639 101.581 122.784 102.907 121.778C104.232 120.772 106.364 120.036 108.364 121.022C109.984 121.821 110.854 123.939 111.999 125.339C113.275 126.9 114.598 128.418 115.888 129.966C117.642 132.072 119.523 134.504 120.955 137.295C120.982 137.328 121.01 137.364 121.041 137.403C121.193 137.596 121.398 137.871 121.607 138.197C121.953 138.738 122.591 139.838 122.592 141.065Z" fill="#E78A09"/>
<path d="M138.693 128.792C139.206 130.962 138.011 132.874 136.733 133.941C135.456 135.007 133.361 135.841 131.317 134.949C130.192 134.458 129.439 133.434 129.082 132.9C128.866 132.579 128.696 132.281 128.58 132.064C128.559 132.026 128.54 131.989 128.522 131.955C127.235 130.458 125.581 129.072 123.577 127.565C122.94 127.085 122.256 126.586 121.539 126.063L121.512 126.044C119.733 124.746 118.02 123.389 116.191 122.178C115.656 121.824 114.627 121.076 114.13 119.954C113.227 117.915 114.051 115.816 115.11 114.532C116.17 113.249 118.076 112.044 120.249 112.546C121.445 112.821 122.373 113.69 122.823 114.149C124.844 116.212 127.321 117.795 129.623 119.526C131.813 121.173 134.201 123.11 136.235 125.498C136.269 125.524 136.305 125.553 136.344 125.584C136.536 125.737 136.799 125.957 137.076 126.226C137.538 126.673 138.411 127.598 138.693 128.792Z" fill="#E78A09"/>
<path d="M57.2885 151.838C58.1938 153.876 60.3022 154.675 61.9646 154.751C63.627 154.827 65.7994 154.223 66.8865 152.276C67.4849 151.204 67.4645 149.933 67.4261 149.292C67.403 148.906 67.3583 148.566 67.3198 148.323C67.3129 148.279 67.3062 148.238 67.2997 148.2C67.4185 146.23 67.8963 144.125 68.5794 141.713C69.3094 139.135 70.149 136.588 70.7757 133.982C70.7937 133.944 70.8131 133.903 70.8335 133.859C70.9367 133.635 71.0724 133.321 71.1998 132.955C71.4115 132.349 71.7777 131.131 71.4941 129.937C70.9788 127.768 69.0532 126.595 67.4331 126.214C65.813 125.834 63.5666 126.028 62.1401 127.742C61.3549 128.686 61.1412 129.939 61.0611 130.576C61.0128 130.96 60.9943 131.303 60.9874 131.548C60.9861 131.594 60.9852 131.637 60.9846 131.677C60.3921 134.136 59.5902 136.54 58.9014 138.973C58.1548 141.609 57.4253 144.596 57.2517 147.728C57.2407 147.769 57.229 147.814 57.2168 147.862C57.1564 148.1 57.081 148.435 57.0228 148.817C56.9262 149.452 56.7901 150.716 57.2885 151.838Z" fill="#E78A09"/>
<path fill-rule="evenodd" clip-rule="evenodd" d="M10.0358 111.157C10.29 109.774 12.0806 109.023 12.0806 109.023C14.1823 106.829 16.8025 105.426 19.3401 104.277C20.263 103.859 21.1522 103.484 22.0136 103.119C23.6288 102.437 25.1463 101.795 26.606 100.996C26.606 100.996 27.949 99.7318 29.1489 99.605C30.1238 99.502 30.7622 99.3342 31.8826 100.058C34.3681 101.662 35.0835 105.916 34.0951 107.944C33.5468 109.068 31.5523 109.335 31.5523 109.335C29.946 110.214 28.1371 110.98 26.4185 111.709C25.5978 112.056 24.7977 112.395 24.0501 112.734C21.6208 113.833 19.4967 115.018 17.8776 116.707C17.8776 116.707 17.0288 118.706 15.8328 118.842C14.4065 119.004 12.9825 118.376 11.6034 116.619C10.1607 114.781 9.71871 112.882 10.0358 111.157Z" fill="#E78A09"/>
<path d="M4.21679 88.0139C2.63914 89.5897 2.6493 91.8444 3.17463 93.4235C3.69996 95.0025 5.04258 96.814 7.24984 97.1306C8.46491 97.3049 9.6445 96.8299 10.2292 96.5642C10.5812 96.4042 10.8825 96.2405 11.0954 96.1176C11.1337 96.0955 11.1695 96.0745 11.2027 96.0547C13.0841 95.4593 15.2206 95.1505 17.7173 94.9231C21.5095 94.5778 25.4756 94.7673 29.1419 93.7103C30.3535 93.361 31.0175 92.3454 31.3318 91.7351C31.7007 91.0188 31.9346 90.189 32.0355 89.3982C32.1342 88.6248 32.1297 87.7005 31.8513 86.8406C31.5663 85.9607 30.862 84.8388 29.4308 84.515C29.3105 84.4878 29.1913 84.4603 29.0729 84.433C28.4276 84.2843 27.8085 84.1416 27.187 84.0803C26.3766 84.0002 25.6014 84.0531 24.5795 84.2059C22.0107 84.5901 19.3914 84.6706 16.8051 84.9061C14.076 85.1546 11.0265 85.5447 8.04039 86.5057C7.9981 86.5102 7.95211 86.5153 7.90281 86.5212C7.6587 86.5503 7.31939 86.5998 6.94165 86.6826C6.31433 86.82 5.08528 87.1464 4.21679 88.0139Z" fill="#E78A09"/>
<path d="M37.4092 141.065C37.4079 143.295 39.0094 144.882 40.4974 145.627C41.9854 146.372 44.2157 146.704 46.0004 145.367C46.9828 144.631 47.481 143.461 47.7065 142.86C47.8423 142.498 47.9397 142.169 48.0033 141.931C48.0148 141.889 48.0252 141.848 48.0347 141.811C50.2715 137.503 54.0537 134.06 56.9908 130.233C57.0226 130.206 57.057 130.177 57.0936 130.145C57.2786 129.983 57.5306 129.75 57.7954 129.468C58.2353 129 59.065 128.037 59.2913 126.83C59.7026 124.639 58.4201 122.784 57.0944 121.778C55.7688 120.772 53.6375 120.036 51.6374 121.022C50.0173 121.821 49.1469 123.939 48.002 125.339C46.7258 126.9 45.403 128.418 44.113 129.966C42.3589 132.072 40.4784 134.504 39.0465 137.295C39.0197 137.328 38.9908 137.364 38.9601 137.403C38.8081 137.596 38.6031 137.871 38.3946 138.197C38.0482 138.738 37.4099 139.838 37.4092 141.065Z" fill="#E78A09"/>
<path d="M21.3081 128.792C20.7956 130.962 21.9906 132.874 23.2681 133.941C24.5456 135.007 26.6405 135.841 28.6841 134.949C29.8091 134.458 30.5623 133.434 30.9197 132.9C31.1349 132.579 31.305 132.281 31.4214 132.064C31.4423 132.026 31.4617 131.989 31.4796 131.955C32.7663 130.458 34.4206 129.072 36.4242 127.565C37.0617 127.085 37.7453 126.586 38.4626 126.063L38.489 126.044C40.2679 124.746 41.9816 123.389 43.8102 122.178C44.3456 121.824 45.3741 121.076 45.871 119.954C46.7738 117.915 45.9507 115.816 44.891 114.532C43.8313 113.249 41.9255 112.044 39.7527 112.546C38.5566 112.821 37.6278 113.69 37.1785 114.149C35.1572 116.212 32.68 117.795 30.378 119.526C28.1879 121.173 25.7998 123.11 23.7661 125.498C23.7325 125.524 23.6961 125.553 23.6573 125.584C23.465 125.737 23.2025 125.957 22.9248 126.226C22.4637 126.673 21.5902 127.598 21.3081 128.792Z" fill="#E78A09"/>
</g>
</g>
</svg>
