<svg width="160" height="160" viewBox="0 0 160 160" fill="none" xmlns="http://www.w3.org/2000/svg">
<g id="cushionVectorAsset">
<path id="Vector" fill-rule="evenodd" clip-rule="evenodd" d="M88.8822 156.267C78.0468 156.431 60.5078 126.211 54.5381 117.865C45.835 105.697 45.8999 105.728 36.935 93.688C30.2975 84.7732 22.5073 75.5726 17.859 65.4614C16.5757 62.6697 14.0701 55.3798 13.4415 53.5831C9.92938 43.5447 5.85355 31.8035 9.31467 21.193C11.6544 14.0206 20.6726 12.6274 27.3697 12.7219C43.4674 12.9492 57.1685 22.9037 66.2308 35.1458C71.195 41.8515 74.3998 49.3424 78.0954 56.7391C79.0983 58.7462 80.1627 60.7237 81.1908 62.7187C81.6529 63.6162 82.0785 64.5318 82.5662 65.4165C82.8823 65.9903 83.1852 66.5794 83.6 67.0911C83.7698 67.3003 84.1222 67.7498 84.2859 67.5359C85.0239 66.5693 85.3457 65.3601 85.7809 64.2352C87.409 60.025 89.1116 53.8279 90.476 49.9288C91.5608 46.8295 93.6516 42.1218 95.3049 39.3125C97.4782 35.6202 99.6784 31.932 102.17 28.4322C104.664 24.9286 107.452 21.626 110.238 18.3342C111.553 16.7798 113.004 15.335 114.463 13.9053C120.793 7.70117 130.142 0.585489 139.826 3.42026C151.074 6.7127 153.437 20.5946 153.023 30.3284C152.881 33.6581 152.674 36.993 152.207 40.295C147.765 71.7182 131.047 99.9834 113.518 126.17C111.068 129.829 95.6837 156.162 88.8822 156.267Z" fill="#E78A09"/>
</g>
</svg>
