<svg width="20" height="20" viewBox="0 0 20 20" fill="none" xmlns="http://www.w3.org/2000/svg">
<g id="cushionVectorAsset">
<path id="Vector" fill-rule="evenodd" clip-rule="evenodd" d="M5.83934 13.9487C5.00894 13.7272 4.29075 13.2823 3.56447 12.8349C2.75402 12.3358 1.91439 11.731 1.42202 10.8944C1.17212 10.4698 1.02457 9.95524 0.928569 9.48764C0.695811 8.35386 0.743475 7.20105 1.10001 6.10506C1.40195 5.17688 1.71071 4.36956 2.38914 3.64483C2.87013 3.13102 3.42274 2.68387 3.99723 2.28026C4.83546 1.69141 5.67498 1.15567 6.6548 0.84669C7.91774 0.44846 9.27278 0.403095 10.5851 0.353984C12.1059 0.297121 13.8163 0.310956 15.237 0.928703C16.0573 1.28539 16.6296 1.77305 17.2972 2.37689C17.6201 2.66888 17.8715 2.90387 18.0905 3.28518C18.8983 4.69156 19.3582 6.34357 19.1739 7.96995C19.0608 8.96864 18.7175 9.92059 18.2327 10.797C17.4212 12.264 15.4815 12.8847 15.0337 14.5885C14.8683 15.2177 15.0712 15.8498 15.0337 16.5021C14.9572 17.8307 14.8517 17.9794 14.6759 19.3354C14.6337 19.6605 13.9866 19.8823 13.8523 19.3354C13.5478 18.0954 13.6273 17.92 13.18 16.9001C12.9735 16.4295 12.6188 15.9794 12.341 15.5518C11.7118 14.5832 10.3431 14.6994 9.3407 14.6352C8.13046 14.5577 6.9699 14.4275 5.83934 13.9487Z" fill="#E78A09"/>
</g>
</svg>
